<?xml version="1.0" standalone="no"?>
<!DOCTYPE svg PUBLIC "-//W3C//DTD SVG 20010904//EN"
 "http://www.w3.org/TR/2001/REC-SVG-20010904/DTD/svg10.dtd">
<svg version="1.0" xmlns="http://www.w3.org/2000/svg"
 width="500.000000pt" height="500.000000pt" viewBox="0 0 500.000000 500.000000"
 preserveAspectRatio="xMidYMid meet">

<g transform="translate(0.000000,500.000000) scale(0.100000,-0.100000)"
fill="#000000" stroke="none">
<path d="M2450 3853 c-18 -21 -105 -114 -193 -207 l-161 -168 -290 3 -291 4 3
-295 4 -295 -206 -190 c-113 -104 -206 -197 -206 -205 0 -8 95 -103 210 -210
l211 -195 -6 -40 c-2 -22 -6 -152 -7 -290 l-3 -250 291 4 290 3 161 -168 c88
-93 175 -186 193 -206 17 -21 40 -38 50 -38 10 0 33 17 50 37 18 21 105 114
193 207 l161 168 290 -3 291 -4 -3 240 c-1 132 -5 263 -7 290 l-6 50 211 195
c115 107 210 202 210 210 0 8 -95 103 -210 210 l-211 195 6 50 c2 27 6 158 7
290 l3 240 -291 -4 -290 -3 -161 168 c-88 93 -175 186 -193 207 -17 20 -40 37
-50 37 -10 0 -33 -17 -50 -37z m241 -236 l184 -198 220 6 c121 3 246 8 278 11
l59 5 -8 -253 c-4 -139 -8 -265 -8 -280 -1 -21 32 -57 194 -209 107 -101 196
-188 198 -194 1 -6 -88 -95 -198 -199 -191 -179 -200 -189 -196 -219 3 -18 8
-141 12 -275 l6 -243 -254 6 c-139 3 -263 8 -275 11 -18 3 -56 -33 -210 -196
-103 -110 -192 -199 -198 -198 -6 2 -94 92 -195 200 -143 153 -189 196 -205
193 -11 -2 -136 -7 -278 -10 l-259 -7 6 84 c3 46 8 171 11 278 l6 195 -200
185 c-110 102 -200 188 -201 191 0 3 90 90 200 193 l201 188 -8 232 c-4 127
-7 251 -8 276 l0 45 90 -2 c50 -2 174 -5 276 -9 l186 -6 188 201 c104 111 192
200 195 199 4 -2 89 -92 191 -201z"/>
<path d="M2314 3595 l-179 -196 -273 7 -274 6 7 -274 6 -273 -130 -120 c-72
-66 -161 -147 -197 -181 l-66 -60 197 -185 197 -184 -7 -273 -7 -273 99 5 c54
3 175 8 268 11 l170 6 183 -196 c101 -107 186 -195 190 -195 4 0 88 88 187
195 l180 195 180 -5 c99 -3 222 -8 273 -11 l94 -5 -6 108 c-3 59 -8 182 -11
273 l-5 165 195 180 c107 99 195 183 195 187 0 3 -88 89 -196 189 l-196 183 6
161 c4 88 9 209 12 268 l6 109 -274 -7 -273 -7 -157 168 c-86 93 -169 181
-185 197 l-29 27 -180 -195z m210 11 c15 -28 26 -36 57 -41 46 -8 48 -14 14
-45 -23 -21 -25 -29 -19 -68 l7 -44 -40 21 c-23 11 -42 18 -45 16 -2 -2 -21
-11 -41 -20 l-37 -15 6 42 c5 37 2 46 -20 67 -14 14 -26 28 -26 32 0 4 18 10
41 14 33 6 43 13 56 41 9 19 19 34 23 34 3 0 14 -15 24 -34z m-401 -337 c9
-12 17 -25 17 -30 0 -14 -39 -10 -64 6 -38 25 -74 -3 -61 -45 8 -26 34 -33 61
-15 27 17 64 20 64 5 0 -6 -11 -22 -25 -35 -53 -54 -155 -18 -155 55 0 43 16
69 52 85 38 16 85 5 111 -26z m450 0 c25 -31 22 -85 -8 -114 -34 -35 -102 -35
-134 -1 -45 48 -19 138 43 148 33 6 79 -10 99 -33z m-738 6 c17 -16 25 -35 25
-60 0 -58 -35 -85 -110 -85 l-60 0 0 85 0 85 60 0 c51 0 65 -4 85 -25z m105
-60 l0 -85 -30 0 -30 0 0 85 0 85 30 0 30 0 0 -85z m370 60 c0 -20 -5 -25 -25
-25 -24 0 -25 -3 -25 -60 l0 -60 -30 0 c-30 0 -30 0 -30 59 0 54 -2 60 -22 63
-15 2 -24 11 -26 26 -3 21 -1 22 77 22 80 0 81 0 81 -25z m70 -60 c0 -84 0
-85 -25 -85 -25 0 -25 1 -25 85 0 84 0 85 25 85 25 0 25 -1 25 -85z m309 48
l30 -38 1 38 c0 33 3 37 25 37 25 0 25 -1 25 -85 0 -77 -2 -85 -19 -85 -10 0
-33 17 -50 38 l-30 37 -1 -37 c0 -34 -3 -38 -25 -38 -25 0 -25 1 -25 85 0 77
2 85 19 85 10 0 33 -17 50 -37z m250 -44 c17 -44 31 -83 31 -85 0 -9 -49 -3
-55 6 -8 13 -62 13 -67 -1 -2 -6 -15 -9 -30 -7 l-26 3 31 83 c29 75 34 82 58
82 25 0 30 -7 58 -81z m167 73 c27 -17 36 -52 21 -81 -12 -24 -12 -32 0 -55
13 -25 13 -26 -17 -26 -23 0 -33 6 -42 25 -6 14 -15 25 -20 25 -4 0 -8 -11 -8
-25 0 -20 -5 -25 -25 -25 -25 0 -25 1 -25 85 l0 85 53 0 c28 0 57 -4 63 -8z
m113 -19 c12 -27 13 -27 27 -8 8 10 14 22 14 27 0 4 14 8 31 8 l31 0 -31 -57
c-17 -31 -31 -69 -31 -85 0 -23 -4 -28 -25 -28 -21 0 -25 5 -25 28 0 16 -14
54 -31 85 l-31 57 30 0 c22 0 32 -7 41 -27z m-771 -359 l52 -26 37 23 c30 19
55 24 129 27 80 4 106 0 186 -24 51 -15 116 -29 143 -31 77 -6 91 -11 103 -38
9 -18 12 -130 12 -375 0 -408 7 -383 -107 -396 -87 -11 -939 -11 -1016 0 -102
14 -97 -9 -97 404 0 290 3 362 14 377 10 15 32 21 87 27 41 4 110 18 154 32
115 36 231 36 303 0z m-888 -364 c60 -60 -18 -153 -88 -104 -31 21 -31 87 0
108 31 22 64 20 88 -4z m1968 4 c16 -11 22 -25 22 -54 0 -29 -6 -43 -22 -54
-48 -34 -108 -4 -108 54 0 58 60 88 108 54z m-1114 -670 c9 -8 16 -28 16 -44
0 -40 -24 -60 -71 -60 l-39 0 0 60 0 60 39 0 c23 0 46 -7 55 -16z m134 4 c-3
-7 -14 -14 -26 -16 -28 -4 -29 -22 -2 -22 11 0 20 -4 20 -10 0 -5 -9 -10 -20
-10 -11 0 -20 -7 -20 -15 0 -9 9 -15 25 -15 14 0 25 -4 25 -10 0 -5 -18 -10
-40 -10 l-40 0 0 60 0 60 41 0 c28 0 39 -4 37 -12z m68 -5 c13 -17 15 -17 25
0 5 9 17 17 24 17 19 0 19 -5 -1 -35 -15 -23 -15 -27 0 -50 20 -30 20 -35 1
-35 -7 0 -19 8 -24 18 -10 16 -12 16 -25 0 -7 -10 -21 -18 -31 -18 -15 0 -15
3 3 32 21 32 21 32 1 60 -18 25 -19 28 -3 28 9 0 23 -8 30 -17z m128 -294
c-14 -23 -237 -264 -244 -264 -7 0 -230 241 -244 264 -5 8 58 11 244 11 186 0
249 -3 244 -11z"/>
<path d="M2478 3249 c-33 -19 -13 -79 26 -79 10 0 36 32 36 45 0 14 -27 45
-38 45 -4 0 -15 -5 -24 -11z"/>
<path d="M1750 3216 c0 -29 4 -36 19 -36 10 0 24 7 32 16 16 20 1 48 -30 52
-18 3 -21 -1 -21 -32z"/>
<path d="M2875 3217 c-8 -19 -2 -31 13 -26 5 2 6 13 2 24 -7 19 -8 19 -15 2z"/>
<path d="M3040 3240 c0 -13 7 -20 20 -20 13 0 20 7 20 20 0 13 -7 20 -20 20
-13 0 -20 -7 -20 -20z"/>
<path d="M2190 2884 c-30 -8 -81 -24 -112 -35 l-58 -21 0 -305 0 -305 23 6
c138 39 192 49 262 50 69 1 86 -3 128 -26 l47 -27 -2 317 -3 317 -45 23 c-53
26 -153 29 -240 6z"/>
<path d="M2570 2878 l-45 -23 -3 -318 -2 -319 27 20 c44 31 110 45 178 37 55
-6 190 -36 229 -51 15 -6 16 23 14 301 l-3 308 -85 29 c-60 21 -112 31 -175
35 -80 4 -95 2 -135 -19z"/>
<path d="M1937 2833 c-12 -11 -8 -701 3 -708 6 -4 133 -12 281 -18 321 -13
826 2 840 25 10 15 12 668 3 692 -3 9 -17 16 -30 16 l-24 0 0 -343 0 -343
-232 -2 c-305 -1 -287 -1 -558 1 l-235 2 -3 343 c-2 323 -3 342 -20 342 -10 0
-22 -3 -25 -7z"/>
<path d="M2216 2224 c-44 -8 -82 -16 -84 -19 -2 -2 66 -5 151 -7 85 -2 153 0
151 4 -6 9 -102 38 -123 37 -9 0 -52 -7 -95 -15z"/>
<path d="M2635 2231 c-27 -7 -75 -28 -75 -34 0 -1 71 0 157 2 148 3 155 4 108
16 -72 17 -155 24 -190 16z"/>
<path d="M2350 1840 c0 -27 3 -31 23 -28 16 2 22 10 22 28 0 18 -6 26 -22 28
-20 3 -23 -1 -23 -28z"/>
</g>
</svg>
